<?xml version="1.0" encoding="utf-8"?><svg xmlns="http://www.w3.org/2000/svg" xmlns:xlink="http://www.w3.org/1999/xlink" width="1920" height="937" preserveAspectRatio="xMidYMid" viewBox="0 0 1920 937" style="z-index:1;margin-right:-2px;display:block;background-repeat-y:initial;background-repeat-x:initial;background-color:rgb(255, 255, 255);animation-play-state:start" ><g transform="" style="animation-play-state:start" ><linearGradient id="lg-0.05209831660081887" x1="0" x2="1" y1="0" y2="0" style="animation-play-state:paused" ><stop stop-color="#ff00ff" offset="0" style="animation-play-state:paused" ></stop>

  
<stop stop-color="#00ffff" offset="1" style="animation-play-state:paused" ></stop></linearGradient>
<path fill="url(#lg-0.05209831660081887)" opacity="0.4" d="M 0 0 L 0 811.282 Q 192 869.322 384 831.626 T 768 745.594 T 1152 581.013 T 1536 568.794 T 1920 366.067 L 1920 0 Z" style="opacity:0.4;animation-play-state:paused" ></path>
<path fill="url(#lg-0.05209831660081887)" opacity="0.4" d="M 0 0 L 0 819.12 Q 192 777.071 384 758.723 T 768 633.311 T 1152 553.57 T 1536 540.87 T 1920 404.065 L 1920 0 Z" style="opacity:0.4;animation-play-state:paused" ></path>
<path fill="url(#lg-0.05209831660081887)" opacity="0.4" d="M 0 0 L 0 915.838 Q 192 772.429 384 754.79 T 768 648.815 T 1152 528.324 T 1536 471.983 T 1920 368.138 L 1920 0 Z" style="opacity:0.4;animation-play-state:paused" ></path>
<path fill="url(#lg-0.05209831660081887)" opacity="0.4" d="M 0 0 L 0 903.344 Q 192 728.495 384 706.789 T 768 714.29 T 1152 569.209 T 1536 556.443 T 1920 343.022 L 1920 0 Z" style="opacity:0.4;animation-play-state:paused" ></path>
<path fill="url(#lg-0.05209831660081887)" opacity="0.4" d="M 0 0 L 0 843.569 Q 192 815.599 384 792.639 T 768 687.944 T 1152 572.243 T 1536 501.516 T 1920 370.839 L 1920 0 Z" style="opacity:0.4;animation-play-state:paused" ></path></g></svg>