<?xml version="1.0" encoding="utf-8"?><svg xmlns="http://www.w3.org/2000/svg" xmlns:xlink="http://www.w3.org/1999/xlink" width="1920" height="888" preserveAspectRatio="xMidYMid" viewBox="0 0 1920 888" style="z-index:1;margin-right:-2px;display:block;background-repeat-y:initial;background-repeat-x:initial;background-color:rgb(241, 242, 243);animation-play-state:paused" ><g transform="translate(550) rotate(90 90 90)" style="animation-play-state:paused" ><linearGradient id="lg-0.29413627155729927" x1="0" x2="1" y1="0" y2="0" style="animation-play-state:paused" ><stop stop-color="#93dbe9" offset="0" style="animation-play-state:paused" ></stop>

  
<stop stop-color="#689cc5" offset="1" style="animation-play-state:paused" ></stop></linearGradient>
<path fill="url(#lg-0.29413627155729927)" opacity="0.23" d="M 0 0 M 0 569.626 Q 192 596.615 384 590.393 T 768 498.754 T 1152 500.834 T 1536 466.383 T 1920 446.473 L 1920 362.003 Q 1728 384.13 1536 384.061 T 1152 392.827 T 768 405.58 T 384 376.221 T 0 345.379 Z" style="opacity:0.23;animation-play-state:paused" ></path>
<path fill="url(#lg-0.29413627155729927)" opacity="0.23" d="M 0 0 M 0 522.176 Q 192 510.657 384 504.947 T 768 517.605 T 1152 504.016 T 1536 494.597 T 1920 496.51 L 1920 394.17 Q 1728 389.896 1536 386.872 T 1152 361.633 T 768 383.478 T 384 366.345 T 0 308.506 Z" style="opacity:0.23;animation-play-state:paused" ></path>
<path fill="url(#lg-0.29413627155729927)" opacity="0.23" d="M 0 0 M 0 570.412 Q 192 548.289 384 542.57 T 768 515.416 T 1152 492.879 T 1536 510.462 T 1920 501.121 L 1920 400.115 Q 1728 407.274 1536 400.575 T 1152 370.28 T 768 350.11 T 384 364.066 T 0 313.508 Z" style="opacity:0.23;animation-play-state:paused" ></path>
<path fill="url(#lg-0.29413627155729927)" opacity="0.23" d="M 0 0 M 0 573.925 Q 192 520.362 384 510.66 T 768 531.47 T 1152 540.202 T 1536 504.856 T 1920 539.404 L 1920 343.826 Q 1728 352.237 1536 344.46 T 1152 362.556 T 768 367.083 T 384 330.062 T 0 334.781 Z" style="opacity:0.23;animation-play-state:paused" ></path></g></svg>